<svg xmlns="http://www.w3.org/2000/svg" version="1.1" xmlns:xlink="http://www.w3.org/1999/xlink" xmlns:svgjs="http://svgjs.com/svgjs" preserveAspectRatio="none" viewBox="0 0 500 500"><g mask="url(&quot;#SvgjsMask1065&quot;)" fill="none"><path d="M310.42 463L313.01 463L313.01 465.59L310.42 465.59z" stroke="rgba(255, 222, 0, 1)"></path><path d="M34.41 25.96L79.89 25.96L79.89 54.13L34.41 54.13z" fill="rgba(209, 50, 9, 1)"></path><path d="M110.52 267.28L158.53 267.28L158.53 315.29L110.52 315.29z" fill="rgba(46, 73, 157, 1)"></path><path d="M98.59 68.34 a14.03 14.03 0 1 0 28.06 0 a14.03 14.03 0 1 0 -28.06 0z" fill="rgba(255, 222, 0, 1)"></path><path d="M232.84 407.74L259.18 407.74L259.18 434.08L232.84 434.08z" fill="rgba(255, 222, 0, 1)"></path><path d="M381.14 124.94 a33.27 33.27 0 1 0 66.54 0 a33.27 33.27 0 1 0 -66.54 0z" fill="rgba(255, 222, 0, 1)"></path><path d="M418.42 11.62L444.13 11.62L444.13 37.33L418.42 37.33z" stroke="rgba(209, 50, 9, 1)"></path><path d="M284.23 276.33L290.86 276.33L290.86 318.25L284.23 318.25z" stroke="rgba(255, 222, 0, 1)"></path><path d="M322.77 86.4 a49.83 49.83 0 1 0 99.66 0 a49.83 49.83 0 1 0 -99.66 0z" fill="rgba(46, 73, 157, 1)"></path><path d="M484 444L523.07 444L523.07 483.07L484 483.07z" stroke="rgba(255, 222, 0, 1)"></path><path d="M12.41 323.26 a47.02 47.02 0 1 0 94.04 0 a47.02 47.02 0 1 0 -94.04 0z" fill="rgba(255, 222, 0, 1)"></path><path d="M466.86 123.65L504.59 123.65L504.59 134.71L466.86 134.71z" fill="rgba(46, 73, 157, 1)"></path><path d="M272.71 333.2a22.03 22.03 0 1 0-16.55-40.83z" fill="rgba(255, 222, 0, 1)"></path></g><defs><mask id="SvgjsMask1065"><rect width="500" height="500" fill="#ffffff"></rect></mask></defs></svg>