<svg xmlns="http://www.w3.org/2000/svg" version="1.1" xmlns:xlink="http://www.w3.org/1999/xlink" xmlns:svgjs="http://svgjs.com/svgjs" width="1280" height="720" preserveAspectRatio="none" viewBox="0 0 1280 720"><g mask="url(&quot;#SvgjsMask1009&quot;)" fill="none"><path d="M484.05 467.76L535.55 467.76L535.55 499.03L484.05 499.03z" fill="rgba(255, 222, 0, 1)"></path><path d="M749.89 44.95a43.4 43.4 0 1 0-86.6 5.79z" stroke="rgba(46, 73, 157, 1)"></path><path d="M1157.97 538.7a45.6 45.6 0 1 0-81.58-40.78z" stroke="rgba(255, 222, 0, 1)"></path><path d="M141.88 559.36L208 559.36L208 625.48L141.88 625.48z" fill="rgba(255, 222, 0, 1)"></path><path d="M606.99 0.01L607.29 0.01L607.29 0.8L606.99 0.8z" stroke="rgba(209, 50, 9, 1)"></path><path d="M182.96 276.91L192.28 276.91L192.28 286.23L182.96 286.23z" fill="rgba(255, 222, 0, 1)"></path><path d="M923.85 202.85L946.24 202.85L946.24 225.24L923.85 225.24z" fill="rgba(46, 73, 157, 1)"></path><path d="M784.48 585.82a35.91 35.91 0 1 0-24.68-67.44z" stroke="rgba(209, 50, 9, 1)"></path><path d="M976.76 415.43a31.81 31.81 0 1 0-60.57-19.47z" fill="rgba(255, 222, 0, 1)"></path><path d="M954.58 238.9L1018.31 238.9L1018.31 302.63L954.58 302.63z" fill="rgba(209, 50, 9, 1)"></path><path d="M302.09 274.29 a70.32 70.32 0 1 0 140.64 0 a70.32 70.32 0 1 0 -140.64 0z" fill="rgba(209, 50, 9, 1)"></path><path d="M950.66 624.83L994.01 624.83L994.01 651.76L950.66 651.76z" fill="rgba(255, 222, 0, 1)"></path><path d="M378.17 563.1a34.63 34.63 0 1 0 39.72-56.74z" fill="rgba(209, 50, 9, 1)"></path><path d="M844.76 234.74L871.57 234.74L871.57 261.55L844.76 261.55z" stroke="rgba(209, 50, 9, 1)"></path><path d="M967.97 596.33a5.06 5.06 0 1 0 6.75 7.55z" stroke="rgba(255, 222, 0, 1)"></path><path d="M785.81 592.56L799.71 592.56L799.71 610.05L785.81 610.05z" stroke="rgba(255, 222, 0, 1)"></path><path d="M153.67 180.56a69.27 69.27 0 1 0-76.83-115.28z" fill="rgba(46, 73, 157, 1)"></path><path d="M1087.2 602.39a15.2 15.2 0 1 0-11.65 28.07z" fill="rgba(255, 222, 0, 1)"></path><path d="M121.98 366.72a1.93 1.93 0 1 0-2.93 2.52z" stroke="rgba(46, 73, 157, 1)"></path><path d="M1179.6 405.92 a36.82 36.82 0 1 0 73.64 0 a36.82 36.82 0 1 0 -73.64 0z" fill="rgba(46, 73, 157, 1)"></path><path d="M293.07 722.92a50.45 50.45 0 1 0-59.76-81.29z" stroke="rgba(255, 222, 0, 1)"></path><path d="M505.73 129.43L569.59 129.43L569.59 155.93L505.73 155.93z" stroke="rgba(255, 222, 0, 1)"></path><path d="M703.15 262.53a6.2 6.2 0 1 0-7.02-10.22z" stroke="rgba(46, 73, 157, 1)"></path></g><defs><mask id="SvgjsMask1009"><rect width="1280" height="720" fill="#ffffff"></rect></mask></defs></svg>