<?xml version="1.0" standalone="no"?><svg xmlns:xlink="http://www.w3.org/1999/xlink" xmlns="http://www.w3.org/2000/svg" viewBox="0 0 1000 727.2727272727273" preserveAspectRatio="xMaxYMax slice"><g transform="scale(1.322314049586777)"><rect x="0" y="0" width="756.25" height="550" fill="#ffffff"/><rect x="0" y="0" width="68.75" height="68.75" fill="#ffffff"/><rect x="34.38" y="0" width="34.38" height="34.38" fill="#ffffff"/><g transform="translate(34.38,0) scale(1.719) rotate(0)"><path fill-rule="evenodd" clip-rule="evenodd" d="M10 20C15.5228 20 20 15.5228 20 10C20 4.47715 15.5228 0 10 0C4.47715 0 0 4.47715 0 10C0 15.5228 4.47715 20 10 20ZM10 17C13.866 17 17 13.866 17 10C17 6.13401 13.866 3 10 3C6.13401 3 3 6.13401 3 10C3 13.866 6.13401 17 10 17Z" fill="#ffffff"/></g><rect x="68.75" y="0" width="68.75" height="68.75" fill="#ffffff"/><rect x="103.13" y="0" width="34.38" height="34.38" fill="#fbfbfb"/><circle cx="120.32" cy="17.19" r="17.19" fill="#fcfcfc"/><rect x="68.75" y="34.38" width="34.38" height="34.38" fill="#fcfcfc"/><g transform="translate(68.75,34.38) scale(1.719) rotate(0)"><path fill-rule="evenodd" clip-rule="evenodd" d="M10 20C15.5228 20 20 15.5228 20 10C20 4.47715 15.5228 0 10 0C4.47715 0 0 4.47715 0 10C0 15.5228 4.47715 20 10 20ZM10 17C13.866 17 17 13.866 17 10C17 6.13401 13.866 3 10 3C6.13401 3 3 6.13401 3 10C3 13.866 6.13401 17 10 17Z" fill="#fefefe"/></g><rect x="103.13" y="34.38" width="34.38" height="34.38" fill="#fefefe"/><path d="M 103.13 68.76 A 34.38 34.38 0 0 1  137.51 34.38 L 137.51 68.76" fill="#fcfcfc"/><rect x="137.5" y="0" width="68.75" height="68.75" fill="#ffffff"/><rect x="137.5" y="0" width="34.38" height="34.38" fill="#fefefe"/><g transform="translate(137.5,0) scale(1.719) rotate(0)"><path fill-rule="evenodd" clip-rule="evenodd" d="M10 20C15.5228 20 20 15.5228 20 10C20 4.47715 15.5228 0 10 0C4.47715 0 0 4.47715 0 10C0 15.5228 4.47715 20 10 20ZM10 17C13.866 17 17 13.866 17 10C17 6.13401 13.866 3 10 3C6.13401 3 3 6.13401 3 10C3 13.866 6.13401 17 10 17Z" fill="#fbfbfb"/></g><rect x="171.88" y="0" width="34.38" height="34.38" fill="#ffffff"/><circle cx="189.07" cy="17.19" r="17.19" fill="#fdfdfd"/><rect x="137.5" y="34.38" width="34.38" height="34.38" fill="#fdfdfd"/><g transform="translate(137.5,34.38) scale(1.719) rotate(0)"><path fill-rule="evenodd" clip-rule="evenodd" d="M10 20C15.5228 20 20 15.5228 20 10C20 4.47715 15.5228 0 10 0C4.47715 0 0 4.47715 0 10C0 15.5228 4.47715 20 10 20ZM10 17C13.866 17 17 13.866 17 10C17 6.13401 13.866 3 10 3C6.13401 3 3 6.13401 3 10C3 13.866 6.13401 17 10 17Z" fill="#ffffff"/></g><rect x="171.88" y="34.38" width="34.38" height="34.38" fill="#fcfcfc"/><path d="M 171.88 68.76 A 34.38 34.38 0 0 0 206.26 34.38 L 171.88 34.38" fill="#fdfdfd"/><rect x="206.25" y="0" width="68.75" height="68.75" fill="#ffffff"/><rect x="206.25" y="0" width="34.38" height="34.38" fill="#ffffff"/><path d="M 206.25 0 A 34.38 34.38 0 0 0 240.63 34.38 L 240.63 0" fill="#fcfcfc"/><rect x="240.63" y="0" width="34.38" height="34.38" fill="#fdfdfd"/><circle cx="257.82" cy="17.19" r="17.19" fill="#fefefe"/><rect x="275" y="0" width="68.75" height="68.75" fill="#ffffff"/><rect x="275" y="0" width="34.38" height="34.38" fill="#fbfbfb"/><circle cx="292.19" cy="17.19" r="17.19" fill="#fdfdfd"/><rect x="309.38" y="0" width="34.38" height="34.38" fill="#fcfcfc"/><path d="M 309.38 34.38 A 34.38 34.38 0 0 1  343.76 0 L 309.38 34.38 A 34.38 34.38 0 0 0 343.76 0" fill="#fafafa"/><rect x="275" y="34.38" width="34.38" height="34.38" fill="#fefefe"/><path d="M 275 34.38 A 34.38 34.38 0 0 1  309.38 68.76 L 275 34.38 A 34.38 34.38 0 0 0 309.38 68.76" fill="#fcfcfc"/><rect x="309.38" y="34.38" width="34.38" height="34.38" fill="#fdfdfd"/><path d="M 309.38 68.76 A 34.38 34.38 0 0 0 343.76 34.38 L 309.38 34.38" fill="#fefefe"/><rect x="343.75" y="0" width="68.75" height="68.75" fill="#ffffff"/><rect x="343.75" y="0" width="34.38" height="34.38" fill="#fcfcfc"/><path d="M 343.75 34.38 A 34.38 34.38 0 0 0 378.13 0 L 343.75 0" fill="#fdfdfd"/><rect x="378.13" y="0" width="34.38" height="34.38" fill="#fafafa"/><circle cx="395.32" cy="17.19" r="17.19" fill="#fcfcfc"/><rect x="343.75" y="34.38" width="34.38" height="34.38" fill="#fefefe"/><g transform="translate(343.75,34.38) scale(1.719) rotate(0)"><path fill-rule="evenodd" clip-rule="evenodd" d="M10 20C15.5228 20 20 15.5228 20 10C20 4.47715 15.5228 0 10 0C4.47715 0 0 4.47715 0 10C0 15.5228 4.47715 20 10 20ZM10 17C13.866 17 17 13.866 17 10C17 6.13401 13.866 3 10 3C6.13401 3 3 6.13401 3 10C3 13.866 6.13401 17 10 17Z" fill="#fefefe"/></g><rect x="378.13" y="34.38" width="34.38" height="34.38" fill="#fcfcfc"/><circle cx="395.32" cy="51.57000000000001" r="17.19" fill="#fdfdfd"/><rect x="412.5" y="0" width="68.75" height="68.75" fill="#ffffff"/><rect x="412.5" y="0" width="34.38" height="34.38" fill="#fefefe"/><path d="M 412.5 34.38 A 34.38 34.38 0 0 1  446.88 0 L 412.5 34.38 A 34.38 34.38 0 0 0 446.88 0" fill="#fafafa"/><rect x="446.88" y="0" width="34.38" height="34.38" fill="#fefefe"/><g transform="translate(446.88,0) scale(1.719) rotate(0)"><path fill-rule="evenodd" clip-rule="evenodd" d="M10 20C15.5228 20 20 15.5228 20 10C20 4.47715 15.5228 0 10 0C4.47715 0 0 4.47715 0 10C0 15.5228 4.47715 20 10 20ZM10 17C13.866 17 17 13.866 17 10C17 6.13401 13.866 3 10 3C6.13401 3 3 6.13401 3 10C3 13.866 6.13401 17 10 17Z" fill="#fefefe"/></g><rect x="412.5" y="34.38" width="34.38" height="34.38" fill="#fdfdfd"/><circle cx="429.69" cy="51.57000000000001" r="17.19" fill="#fdfdfd"/><rect x="446.88" y="34.38" width="34.38" height="34.38" fill="#fdfdfd"/><circle cx="464.07" cy="51.57000000000001" r="17.19" fill="#fefefe"/><rect x="550" y="0" width="68.75" height="68.75" fill="#ffffff"/><rect x="550" y="0" width="34.38" height="34.38" fill="#fcfcfc"/><path d="M 550 0 A 34.38 34.38 0 0 1  584.38 34.38 L 550 0 A 34.38 34.38 0 0 0 584.38 34.38" fill="#fefefe"/><rect x="584.38" y="0" width="34.38" height="34.38" fill="#fcfcfc"/><path d="M 584.38 0 A 34.38 34.38 0 0 1  618.76 34.38 L 584.38 0 A 34.38 34.38 0 0 0 618.76 34.38" fill="#fbfbfb"/><rect x="584.38" y="34.38" width="34.38" height="34.38" fill="#fcfcfc"/><path d="M 584.38 68.76 A 34.38 34.38 0 0 1  618.76 34.38 L 584.38 68.76 A 34.38 34.38 0 0 0 618.76 34.38" fill="#fefefe"/><rect x="618.75" y="0" width="68.75" height="68.75" fill="#ffffff"/><rect x="653.13" y="0" width="34.38" height="34.38" fill="#fdfdfd"/><g transform="translate(653.13,0) scale(1.719) rotate(0)"><path fill-rule="evenodd" clip-rule="evenodd" d="M10 20C15.5228 20 20 15.5228 20 10C20 4.47715 15.5228 0 10 0C4.47715 0 0 4.47715 0 10C0 15.5228 4.47715 20 10 20ZM10 17C13.866 17 17 13.866 17 10C17 6.13401 13.866 3 10 3C6.13401 3 3 6.13401 3 10C3 13.866 6.13401 17 10 17Z" fill="#fdfdfd"/></g><rect x="618.75" y="34.38" width="34.38" height="34.38" fill="#fefefe"/><path d="M 618.75 68.76 A 34.38 34.38 0 0 1  653.13 34.38 L 618.75 68.76 A 34.38 34.38 0 0 0 653.13 34.38" fill="#fefefe"/><rect x="653.13" y="34.38" width="34.38" height="34.38" fill="#fefefe"/><path d="M 653.13 68.76 A 34.38 34.38 0 0 1  687.51 34.38 L 653.13 68.76 A 34.38 34.38 0 0 0 687.51 34.38" fill="#fdfdfd"/><rect x="687.5" y="0" width="68.75" height="68.75" fill="#ffffff"/><rect x="687.5" y="0" width="34.38" height="34.38" fill="#fdfdfd"/><path d="M 687.5 34.38 A 34.38 34.38 0 0 1  721.88 0 L 687.5 34.38 A 34.38 34.38 0 0 0 721.88 0" fill="#fefefe"/><rect x="721.88" y="0" width="34.38" height="34.38" fill="#ffffff"/><circle cx="739.07" cy="17.19" r="17.19" fill="#fefefe"/><rect x="687.5" y="34.38" width="34.38" height="34.38" fill="#fbfbfb"/><path d="M 687.5 34.38 A 34.38 34.38 0 0 1  721.88 68.76 L 687.5 34.38 A 34.38 34.38 0 0 0 721.88 68.76" fill="#fafafa"/><rect x="721.88" y="34.38" width="34.38" height="34.38" fill="#ffffff"/><path d="M 721.88 34.38 A 34.38 34.38 0 0 1  756.26 68.76 L 721.88 34.38 A 34.38 34.38 0 0 0 756.26 68.76" fill="#fefefe"/><rect x="137.5" y="68.75" width="68.75" height="68.75" fill="#ffffff"/><rect x="137.5" y="68.75" width="34.38" height="34.38" fill="#fcfcfc"/><circle cx="154.69" cy="85.94" r="17.19" fill="#fbfbfb"/><rect x="171.88" y="103.13" width="34.38" height="34.38" fill="#ffffff"/><path d="M 171.88 137.51 A 34.38 34.38 0 0 1  206.26 103.13 L 171.88 137.51 A 34.38 34.38 0 0 0 206.26 103.13" fill="#fbfbfb"/><rect x="206.25" y="68.75" width="68.75" height="68.75" fill="#ffffff"/><rect x="206.25" y="68.75" width="34.38" height="34.38" fill="#fefefe"/><path d="M 206.25 103.13 A 34.38 34.38 0 0 1  240.63 68.75 L 206.25 103.13 A 34.38 34.38 0 0 0 240.63 68.75" fill="#fefefe"/><rect x="240.63" y="68.75" width="34.38" height="34.38" fill="#fcfcfc"/><g transform="translate(240.63,68.75) scale(1.719) rotate(0)"><path fill-rule="evenodd" clip-rule="evenodd" d="M10 20C15.5228 20 20 15.5228 20 10C20 4.47715 15.5228 0 10 0C4.47715 0 0 4.47715 0 10C0 15.5228 4.47715 20 10 20ZM10 17C13.866 17 17 13.866 17 10C17 6.13401 13.866 3 10 3C6.13401 3 3 6.13401 3 10C3 13.866 6.13401 17 10 17Z" fill="#fcfcfc"/></g><rect x="240.63" y="103.13" width="34.38" height="34.38" fill="#fdfdfd"/><path d="M 240.63 137.51 A 34.38 34.38 0 0 1  275.01 103.13 L 240.63 137.51 A 34.38 34.38 0 0 0 275.01 103.13" fill="#fcfcfc"/><rect x="412.5" y="68.75" width="68.75" height="68.75" fill="#ffffff"/><rect x="481.25" y="68.75" width="68.75" height="68.75" fill="#ffffff"/><rect x="481.25" y="68.75" width="34.38" height="34.38" fill="#fefefe"/><g transform="translate(481.25,68.75) scale(1.719) rotate(0)"><path fill-rule="evenodd" clip-rule="evenodd" d="M10 20C15.5228 20 20 15.5228 20 10C20 4.47715 15.5228 0 10 0C4.47715 0 0 4.47715 0 10C0 15.5228 4.47715 20 10 20ZM10 17C13.866 17 17 13.866 17 10C17 6.13401 13.866 3 10 3C6.13401 3 3 6.13401 3 10C3 13.866 6.13401 17 10 17Z" fill="#fdfdfd"/></g><rect x="515.63" y="68.75" width="34.38" height="34.38" fill="#fefefe"/><circle cx="532.82" cy="85.94" r="17.19" fill="#fdfdfd"/><rect x="515.63" y="103.13" width="34.38" height="34.38" fill="#fcfcfc"/><path d="M 515.63 103.13 A 34.38 34.38 0 0 1  550.01 137.51 L 515.63 103.13 A 34.38 34.38 0 0 0 550.01 137.51" fill="#fdfdfd"/><rect x="550" y="68.75" width="68.75" height="68.75" fill="#ffffff"/><rect x="550" y="68.75" width="34.38" height="34.38" fill="#fefefe"/><path d="M 550 68.75 A 34.38 34.38 0 0 1  584.38 103.13 L 550 68.75 A 34.38 34.38 0 0 0 584.38 103.13" fill="#fbfbfb"/><rect x="584.38" y="68.75" width="34.38" height="34.38" fill="#fcfcfc"/><g transform="translate(584.38,68.75) scale(1.719) rotate(0)"><path fill-rule="evenodd" clip-rule="evenodd" d="M10 20C15.5228 20 20 15.5228 20 10C20 4.47715 15.5228 0 10 0C4.47715 0 0 4.47715 0 10C0 15.5228 4.47715 20 10 20ZM10 17C13.866 17 17 13.866 17 10C17 6.13401 13.866 3 10 3C6.13401 3 3 6.13401 3 10C3 13.866 6.13401 17 10 17Z" fill="#fcfcfc"/></g><rect x="550" y="103.13" width="34.38" height="34.38" fill="#ffffff"/><path d="M 550 137.51 A 34.38 34.38 0 0 1  584.38 103.13 L 550 137.51 A 34.38 34.38 0 0 0 584.38 103.13" fill="#fdfdfd"/><rect x="584.38" y="103.13" width="34.38" height="34.38" fill="#fefefe"/><path d="M 584.38 137.51 A 34.38 34.38 0 0 1  618.76 103.13 L 618.76 137.51" fill="#fdfdfd"/><rect x="618.75" y="68.75" width="68.75" height="68.75" fill="#ffffff"/><rect x="618.75" y="68.75" width="34.38" height="34.38" fill="#fcfcfc"/><circle cx="635.94" cy="85.94" r="17.19" fill="#fefefe"/><rect x="653.13" y="103.13" width="34.38" height="34.38" fill="#fcfcfc"/><path d="M 653.13 137.51 A 34.38 34.38 0 0 1  687.51 103.13 L 653.13 137.51 A 34.38 34.38 0 0 0 687.51 103.13" fill="#fefefe"/><rect x="687.5" y="68.75" width="68.75" height="68.75" fill="#ffffff"/><rect x="687.5" y="68.75" width="34.38" height="34.38" fill="#fdfdfd"/><path d="M 687.5 103.13 A 34.38 34.38 0 0 1  721.88 68.75 L 687.5 103.13 A 34.38 34.38 0 0 0 721.88 68.75" fill="#fefefe"/><rect x="721.88" y="68.75" width="34.38" height="34.38" fill="#fafafa"/><g transform="translate(721.88,68.75) scale(1.719) rotate(0)"><path fill-rule="evenodd" clip-rule="evenodd" d="M10 20C15.5228 20 20 15.5228 20 10C20 4.47715 15.5228 0 10 0C4.47715 0 0 4.47715 0 10C0 15.5228 4.47715 20 10 20ZM10 17C13.866 17 17 13.866 17 10C17 6.13401 13.866 3 10 3C6.13401 3 3 6.13401 3 10C3 13.866 6.13401 17 10 17Z" fill="#fdfdfd"/></g><rect x="687.5" y="103.13" width="34.38" height="34.38" fill="#fcfcfc"/><g transform="translate(687.5,103.13) scale(1.719) rotate(0)"><path fill-rule="evenodd" clip-rule="evenodd" d="M10 20C15.5228 20 20 15.5228 20 10C20 4.47715 15.5228 0 10 0C4.47715 0 0 4.47715 0 10C0 15.5228 4.47715 20 10 20ZM10 17C13.866 17 17 13.866 17 10C17 6.13401 13.866 3 10 3C6.13401 3 3 6.13401 3 10C3 13.866 6.13401 17 10 17Z" fill="#ffffff"/></g><rect x="721.88" y="103.13" width="34.38" height="34.38" fill="#fefefe"/><circle cx="739.07" cy="120.32" r="17.19" fill="#fefefe"/><rect x="0" y="137.5" width="68.75" height="68.75" fill="#ffffff"/><rect x="0" y="137.5" width="34.38" height="34.38" fill="#fbfbfb"/><path d="M 0 171.88 A 34.38 34.38 0 0 1  34.38 137.5 L 0 171.88 A 34.38 34.38 0 0 0 34.38 137.5" fill="#fefefe"/><rect x="34.38" y="137.5" width="34.38" height="34.38" fill="#fcfcfc"/><path d="M 34.38 137.5 A 34.38 34.38 0 0 1  68.76 171.88 L 34.38 137.5 A 34.38 34.38 0 0 0 68.76 171.88" fill="#fcfcfc"/><rect x="34.38" y="171.88" width="34.38" height="34.38" fill="#fdfdfd"/><circle cx="51.57000000000001" cy="189.07" r="17.19" fill="#fbfbfb"/><rect x="137.5" y="137.5" width="68.75" height="68.75" fill="#ffffff"/><rect x="137.5" y="137.5" width="34.38" height="34.38" fill="#ffffff"/><g transform="translate(137.5,137.5) scale(1.719) rotate(0)"><path fill-rule="evenodd" clip-rule="evenodd" d="M10 20C15.5228 20 20 15.5228 20 10C20 4.47715 15.5228 0 10 0C4.47715 0 0 4.47715 0 10C0 15.5228 4.47715 20 10 20ZM10 17C13.866 17 17 13.866 17 10C17 6.13401 13.866 3 10 3C6.13401 3 3 6.13401 3 10C3 13.866 6.13401 17 10 17Z" fill="#ffffff"/></g><rect x="171.88" y="171.88" width="34.38" height="34.38" fill="#ffffff"/><path d="M 171.88 206.26 A 34.38 34.38 0 0 0 206.26 171.88 L 171.88 171.88" fill="#fdfdfd"/><rect x="206.25" y="137.5" width="68.75" height="68.75" fill="#ffffff"/><rect x="240.63" y="137.5" width="34.38" height="34.38" fill="#fdfdfd"/><path d="M 240.63 171.88 A 34.38 34.38 0 0 1  275.01 137.5 L 240.63 171.88 A 34.38 34.38 0 0 0 275.01 137.5" fill="#fefefe"/><rect x="206.25" y="171.88" width="34.38" height="34.38" fill="#fbfbfb"/><circle cx="223.44" cy="189.07" r="17.19" fill="#fbfbfb"/><rect x="240.63" y="171.88" width="34.38" height="34.38" fill="#fbfbfb"/><g transform="translate(240.63,171.88) scale(1.719) rotate(0)"><path fill-rule="evenodd" clip-rule="evenodd" d="M10 20C15.5228 20 20 15.5228 20 10C20 4.47715 15.5228 0 10 0C4.47715 0 0 4.47715 0 10C0 15.5228 4.47715 20 10 20ZM10 17C13.866 17 17 13.866 17 10C17 6.13401 13.866 3 10 3C6.13401 3 3 6.13401 3 10C3 13.866 6.13401 17 10 17Z" fill="#fbfbfb"/></g><rect x="275" y="137.5" width="68.75" height="68.75" fill="#ffffff"/><rect x="275" y="137.5" width="34.38" height="34.38" fill="#fcfcfc"/><path d="M 275 171.88 A 34.38 34.38 0 0 1  309.38 137.5 L 275 171.88 A 34.38 34.38 0 0 0 309.38 137.5" fill="#fcfcfc"/><rect x="309.38" y="137.5" width="34.38" height="34.38" fill="#fcfcfc"/><path d="M 309.38 171.88 A 34.38 34.38 0 0 1  343.76 137.5 L 309.38 171.88 A 34.38 34.38 0 0 0 343.76 137.5" fill="#ffffff"/><rect x="275" y="171.88" width="34.38" height="34.38" fill="#fcfcfc"/><path d="M 275 171.88 A 34.38 34.38 0 0 1 309.38 206.26 L 275 206.26" fill="#fcfcfc"/><rect x="309.38" y="171.88" width="34.38" height="34.38" fill="#fdfdfd"/><circle cx="326.57" cy="189.07" r="17.19" fill="#fbfbfb"/><rect x="343.75" y="137.5" width="68.75" height="68.75" fill="#ffffff"/><rect x="343.75" y="137.5" width="34.38" height="34.38" fill="#fefefe"/><path d="M 343.75 137.5 A 34.38 34.38 0 0 1  378.13 171.88 L 343.75 137.5 A 34.38 34.38 0 0 0 378.13 171.88" fill="#fbfbfb"/><rect x="378.13" y="137.5" width="34.38" height="34.38" fill="#fdfdfd"/><g transform="translate(378.13,137.5) scale(1.719) rotate(0)"><path fill-rule="evenodd" clip-rule="evenodd" d="M10 20C15.5228 20 20 15.5228 20 10C20 4.47715 15.5228 0 10 0C4.47715 0 0 4.47715 0 10C0 15.5228 4.47715 20 10 20ZM10 17C13.866 17 17 13.866 17 10C17 6.13401 13.866 3 10 3C6.13401 3 3 6.13401 3 10C3 13.866 6.13401 17 10 17Z" fill="#fcfcfc"/></g><rect x="412.5" y="137.5" width="68.75" height="68.75" fill="#ffffff"/><rect x="481.25" y="137.5" width="68.75" height="68.75" fill="#ffffff"/><rect x="515.63" y="137.5" width="34.38" height="34.38" fill="#fdfdfd"/><g transform="translate(515.63,137.5) scale(1.719) rotate(0)"><path fill-rule="evenodd" clip-rule="evenodd" d="M10 20C15.5228 20 20 15.5228 20 10C20 4.47715 15.5228 0 10 0C4.47715 0 0 4.47715 0 10C0 15.5228 4.47715 20 10 20ZM10 17C13.866 17 17 13.866 17 10C17 6.13401 13.866 3 10 3C6.13401 3 3 6.13401 3 10C3 13.866 6.13401 17 10 17Z" fill="#ffffff"/></g><rect x="481.25" y="171.88" width="34.38" height="34.38" fill="#fbfbfb"/><path d="M 481.25 171.88 A 34.38 34.38 0 0 1  515.63 206.26 L 481.25 171.88 A 34.38 34.38 0 0 0 515.63 206.26" fill="#fefefe"/><rect x="550" y="137.5" width="68.75" height="68.75" fill="#ffffff"/><rect x="550" y="137.5" width="34.38" height="34.38" fill="#fcfcfc"/><circle cx="567.19" cy="154.69" r="17.19" fill="#fbfbfb"/><rect x="584.38" y="137.5" width="34.38" height="34.38" fill="#ffffff"/><g transform="translate(584.38,137.5) scale(1.719) rotate(0)"><path fill-rule="evenodd" clip-rule="evenodd" d="M10 20C15.5228 20 20 15.5228 20 10C20 4.47715 15.5228 0 10 0C4.47715 0 0 4.47715 0 10C0 15.5228 4.47715 20 10 20ZM10 17C13.866 17 17 13.866 17 10C17 6.13401 13.866 3 10 3C6.13401 3 3 6.13401 3 10C3 13.866 6.13401 17 10 17Z" fill="#fefefe"/></g><rect x="550" y="171.88" width="34.38" height="34.38" fill="#fefefe"/><path d="M 550 171.88 A 34.38 34.38 0 0 1 584.38 206.26 L 550 206.26" fill="#fdfdfd"/><rect x="618.75" y="137.5" width="68.75" height="68.75" fill="#ffffff"/><rect x="618.75" y="137.5" width="34.38" height="34.38" fill="#fefefe"/><path d="M 618.75 137.5 A 34.38 34.38 0 0 1 653.13 171.88 L 618.75 171.88" fill="#ffffff"/><rect x="653.13" y="171.88" width="34.38" height="34.38" fill="#fdfdfd"/><circle cx="670.32" cy="189.07" r="17.19" fill="#fefefe"/><rect x="0" y="206.25" width="68.75" height="68.75" fill="#ffffff"/><rect x="0" y="206.25" width="34.38" height="34.38" fill="#ffffff"/><g transform="translate(0,206.25) scale(1.719) rotate(0)"><path fill-rule="evenodd" clip-rule="evenodd" d="M10 20C15.5228 20 20 15.5228 20 10C20 4.47715 15.5228 0 10 0C4.47715 0 0 4.47715 0 10C0 15.5228 4.47715 20 10 20ZM10 17C13.866 17 17 13.866 17 10C17 6.13401 13.866 3 10 3C6.13401 3 3 6.13401 3 10C3 13.866 6.13401 17 10 17Z" fill="#fdfdfd"/></g><rect x="34.38" y="206.25" width="34.38" height="34.38" fill="#fcfcfc"/><path d="M 34.38 240.63 A 34.38 34.38 0 0 1  68.76 206.25 L 34.38 240.63 A 34.38 34.38 0 0 0 68.76 206.25" fill="#fefefe"/><rect x="34.38" y="240.63" width="34.38" height="34.38" fill="#fefefe"/><path d="M 34.38 275.01 A 34.38 34.38 0 0 1  68.76 240.63 L 34.38 275.01 A 34.38 34.38 0 0 0 68.76 240.63" fill="#fcfcfc"/><rect x="68.75" y="206.25" width="68.75" height="68.75" fill="#ffffff"/><rect x="68.75" y="206.25" width="34.38" height="34.38" fill="#fbfbfb"/><circle cx="85.94" cy="223.44" r="17.19" fill="#fefefe"/><rect x="103.13" y="206.25" width="34.38" height="34.38" fill="#fcfcfc"/><circle cx="120.32" cy="223.44" r="17.19" fill="#fdfdfd"/><rect x="68.75" y="240.63" width="34.38" height="34.38" fill="#ffffff"/><path d="M 68.75 275.01 A 34.38 34.38 0 0 1  103.13 240.63 L 68.75 275.01 A 34.38 34.38 0 0 0 103.13 240.63" fill="#fdfdfd"/><rect x="103.13" y="240.63" width="34.38" height="34.38" fill="#fefefe"/><circle cx="120.32" cy="257.82" r="17.19" fill="#fdfdfd"/><rect x="137.5" y="206.25" width="68.75" height="68.75" fill="#ffffff"/><rect x="137.5" y="240.63" width="34.38" height="34.38" fill="#ffffff"/><path d="M 137.5 240.63 A 34.38 34.38 0 0 1  171.88 275.01 L 137.5 240.63 A 34.38 34.38 0 0 0 171.88 275.01" fill="#fefefe"/><rect x="171.88" y="240.63" width="34.38" height="34.38" fill="#fdfdfd"/><path d="M 171.88 240.63 A 34.38 34.38 0 0 1  206.26 275.01 L 171.88 240.63 A 34.38 34.38 0 0 0 206.26 275.01" fill="#fefefe"/><rect x="206.25" y="206.25" width="68.75" height="68.75" fill="#ffffff"/><rect x="206.25" y="206.25" width="34.38" height="34.38" fill="#fbfbfb"/><path d="M 206.25 206.25 A 34.38 34.38 0 0 1 240.63 240.63 L 206.25 240.63" fill="#fafafa"/><rect x="240.63" y="206.25" width="34.38" height="34.38" fill="#fdfdfd"/><path d="M 240.63 240.63 A 34.38 34.38 0 0 1  275.01 206.25 L 240.63 240.63 A 34.38 34.38 0 0 0 275.01 206.25" fill="#fcfcfc"/><rect x="206.25" y="240.63" width="34.38" height="34.38" fill="#fcfcfc"/><path d="M 206.25 275.01 A 34.38 34.38 0 0 1  240.63 240.63 L 206.25 275.01 A 34.38 34.38 0 0 0 240.63 240.63" fill="#fcfcfc"/><rect x="240.63" y="240.63" width="34.38" height="34.38" fill="#fefefe"/><g transform="translate(240.63,240.63) scale(1.719) rotate(0)"><path fill-rule="evenodd" clip-rule="evenodd" d="M10 20C15.5228 20 20 15.5228 20 10C20 4.47715 15.5228 0 10 0C4.47715 0 0 4.47715 0 10C0 15.5228 4.47715 20 10 20ZM10 17C13.866 17 17 13.866 17 10C17 6.13401 13.866 3 10 3C6.13401 3 3 6.13401 3 10C3 13.866 6.13401 17 10 17Z" fill="#fefefe"/></g><rect x="275" y="206.25" width="68.75" height="68.75" fill="#ffffff"/><rect x="275" y="206.25" width="34.38" height="34.38" fill="#fefefe"/><g transform="translate(275,206.25) scale(1.719) rotate(0)"><path fill-rule="evenodd" clip-rule="evenodd" d="M10 20C15.5228 20 20 15.5228 20 10C20 4.47715 15.5228 0 10 0C4.47715 0 0 4.47715 0 10C0 15.5228 4.47715 20 10 20ZM10 17C13.866 17 17 13.866 17 10C17 6.13401 13.866 3 10 3C6.13401 3 3 6.13401 3 10C3 13.866 6.13401 17 10 17Z" fill="#fefefe"/></g><rect x="309.38" y="206.25" width="34.38" height="34.38" fill="#fdfdfd"/><circle cx="326.57" cy="223.44" r="17.19" fill="#fcfcfc"/><rect x="275" y="240.63" width="34.38" height="34.38" fill="#fdfdfd"/><path d="M 275 240.63 A 34.38 34.38 0 0 0 309.38 275.01 L 309.38 240.63" fill="#fcfcfc"/><rect x="309.38" y="240.63" width="34.38" height="34.38" fill="#ffffff"/><circle cx="326.57" cy="257.82" r="17.19" fill="#fdfdfd"/><rect x="343.75" y="206.25" width="68.75" height="68.75" fill="#ffffff"/><rect x="343.75" y="206.25" width="34.38" height="34.38" fill="#fefefe"/><path d="M 343.75 240.63 A 34.38 34.38 0 0 0 378.13 206.25 L 343.75 206.25" fill="#fcfcfc"/><rect x="378.13" y="206.25" width="34.38" height="34.38" fill="#fefefe"/><path d="M 378.13 206.25 A 34.38 34.38 0 0 1  412.51 240.63 L 378.13 206.25 A 34.38 34.38 0 0 0 412.51 240.63" fill="#fefefe"/><rect x="343.75" y="240.63" width="34.38" height="34.38" fill="#fbfbfb"/><path d="M 343.75 240.63 A 34.38 34.38 0 0 1 378.13 275.01 L 343.75 275.01" fill="#fefefe"/><rect x="378.13" y="240.63" width="34.38" height="34.38" fill="#fbfbfb"/><g transform="translate(378.13,240.63) scale(1.719) rotate(0)"><path fill-rule="evenodd" clip-rule="evenodd" d="M10 20C15.5228 20 20 15.5228 20 10C20 4.47715 15.5228 0 10 0C4.47715 0 0 4.47715 0 10C0 15.5228 4.47715 20 10 20ZM10 17C13.866 17 17 13.866 17 10C17 6.13401 13.866 3 10 3C6.13401 3 3 6.13401 3 10C3 13.866 6.13401 17 10 17Z" fill="#fdfdfd"/></g><rect x="412.5" y="206.25" width="68.75" height="68.75" fill="#ffffff"/><rect x="412.5" y="206.25" width="34.38" height="34.38" fill="#ffffff"/><path d="M 412.5 240.63 A 34.38 34.38 0 0 0 446.88 206.25 L 412.5 206.25" fill="#ffffff"/><rect x="446.88" y="206.25" width="34.38" height="34.38" fill="#fcfcfc"/><path d="M 446.88 206.25 A 34.38 34.38 0 0 1  481.26 240.63 L 446.88 206.25 A 34.38 34.38 0 0 0 481.26 240.63" fill="#ffffff"/><rect x="412.5" y="240.63" width="34.38" height="34.38" fill="#fdfdfd"/><path d="M 412.5 240.63 A 34.38 34.38 0 0 1  446.88 275.01 L 412.5 240.63 A 34.38 34.38 0 0 0 446.88 275.01" fill="#fefefe"/><rect x="446.88" y="240.63" width="34.38" height="34.38" fill="#fbfbfb"/><g transform="translate(446.88,240.63) scale(1.719) rotate(0)"><path fill-rule="evenodd" clip-rule="evenodd" d="M10 20C15.5228 20 20 15.5228 20 10C20 4.47715 15.5228 0 10 0C4.47715 0 0 4.47715 0 10C0 15.5228 4.47715 20 10 20ZM10 17C13.866 17 17 13.866 17 10C17 6.13401 13.866 3 10 3C6.13401 3 3 6.13401 3 10C3 13.866 6.13401 17 10 17Z" fill="#fdfdfd"/></g><rect x="481.25" y="206.25" width="68.75" height="68.75" fill="#ffffff"/><rect x="515.63" y="206.25" width="34.38" height="34.38" fill="#fcfcfc"/><circle cx="532.82" cy="223.44" r="17.19" fill="#fcfcfc"/><rect x="481.25" y="240.63" width="34.38" height="34.38" fill="#ffffff"/><path d="M 481.25 240.63 A 34.38 34.38 0 0 1  515.63 275.01 L 481.25 240.63 A 34.38 34.38 0 0 0 515.63 275.01" fill="#fcfcfc"/><rect x="515.63" y="240.63" width="34.38" height="34.38" fill="#fdfdfd"/><path d="M 515.63 275.01 A 34.38 34.38 0 0 1  550.01 240.63 L 515.63 275.01 A 34.38 34.38 0 0 0 550.01 240.63" fill="#fcfcfc"/><rect x="618.75" y="206.25" width="68.75" height="68.75" fill="#ffffff"/><rect x="618.75" y="206.25" width="34.38" height="34.38" fill="#ffffff"/><circle cx="635.94" cy="223.44" r="17.19" fill="#fefefe"/><rect x="653.13" y="240.63" width="34.38" height="34.38" fill="#fefefe"/><path d="M 653.13 275.01 A 34.38 34.38 0 0 1  687.51 240.63 L 653.13 275.01 A 34.38 34.38 0 0 0 687.51 240.63" fill="#ffffff"/><rect x="687.5" y="206.25" width="68.75" height="68.75" fill="#ffffff"/><rect x="687.5" y="206.25" width="34.38" height="34.38" fill="#fdfdfd"/><path d="M 687.5 240.63 A 34.38 34.38 0 0 1  721.88 206.25 L 687.5 240.63 A 34.38 34.38 0 0 0 721.88 206.25" fill="#fdfdfd"/><rect x="721.88" y="206.25" width="34.38" height="34.38" fill="#fefefe"/><path d="M 721.88 240.63 A 34.38 34.38 0 0 1  756.26 206.25 L 756.26 240.63" fill="#fdfdfd"/><rect x="68.75" y="275" width="68.75" height="68.75" fill="#ffffff"/><rect x="103.13" y="275" width="34.38" height="34.38" fill="#fdfdfd"/><circle cx="120.32" cy="292.19" r="17.19" fill="#fafafa"/><rect x="68.75" y="309.38" width="34.38" height="34.38" fill="#fcfcfc"/><g transform="translate(68.75,309.38) scale(1.719) rotate(0)"><path fill-rule="evenodd" clip-rule="evenodd" d="M10 20C15.5228 20 20 15.5228 20 10C20 4.47715 15.5228 0 10 0C4.47715 0 0 4.47715 0 10C0 15.5228 4.47715 20 10 20ZM10 17C13.866 17 17 13.866 17 10C17 6.13401 13.866 3 10 3C6.13401 3 3 6.13401 3 10C3 13.866 6.13401 17 10 17Z" fill="#fcfcfc"/></g><rect x="103.13" y="309.38" width="34.38" height="34.38" fill="#fcfcfc"/><g transform="translate(103.13,309.38) scale(1.719) rotate(0)"><path fill-rule="evenodd" clip-rule="evenodd" d="M10 20C15.5228 20 20 15.5228 20 10C20 4.47715 15.5228 0 10 0C4.47715 0 0 4.47715 0 10C0 15.5228 4.47715 20 10 20ZM10 17C13.866 17 17 13.866 17 10C17 6.13401 13.866 3 10 3C6.13401 3 3 6.13401 3 10C3 13.866 6.13401 17 10 17Z" fill="#fefefe"/></g><rect x="137.5" y="275" width="68.75" height="68.75" fill="#ffffff"/><rect x="137.5" y="275" width="34.38" height="34.38" fill="#fafafa"/><g transform="translate(137.5,275) scale(1.719) rotate(0)"><path fill-rule="evenodd" clip-rule="evenodd" d="M10 20C15.5228 20 20 15.5228 20 10C20 4.47715 15.5228 0 10 0C4.47715 0 0 4.47715 0 10C0 15.5228 4.47715 20 10 20ZM10 17C13.866 17 17 13.866 17 10C17 6.13401 13.866 3 10 3C6.13401 3 3 6.13401 3 10C3 13.866 6.13401 17 10 17Z" fill="#fbfbfb"/></g><rect x="171.88" y="275" width="34.38" height="34.38" fill="#fcfcfc"/><path d="M 171.88 309.38 A 34.38 34.38 0 0 1  206.26 275 L 171.88 309.38 A 34.38 34.38 0 0 0 206.26 275" fill="#fbfbfb"/><rect x="137.5" y="309.38" width="34.38" height="34.38" fill="#ffffff"/><path d="M 137.5 309.38 A 34.38 34.38 0 0 0 171.88 343.76 L 171.88 309.38" fill="#fcfcfc"/><rect x="171.88" y="309.38" width="34.38" height="34.38" fill="#fdfdfd"/><path d="M 171.88 343.76 A 34.38 34.38 0 0 0 206.26 309.38 L 171.88 309.38" fill="#fdfdfd"/><rect x="206.25" y="275" width="68.75" height="68.75" fill="#ffffff"/><rect x="240.63" y="275" width="34.38" height="34.38" fill="#fcfcfc"/><path d="M 240.63 275 A 34.38 34.38 0 0 1  275.01 309.38 L 240.63 275 A 34.38 34.38 0 0 0 275.01 309.38" fill="#fdfdfd"/><rect x="275" y="275" width="68.75" height="68.75" fill="#ffffff"/><rect x="275" y="275" width="34.38" height="34.38" fill="#ffffff"/><path d="M 275 275 A 34.38 34.38 0 0 1  309.38 309.38 L 275 275 A 34.38 34.38 0 0 0 309.38 309.38" fill="#fefefe"/><rect x="309.38" y="275" width="34.38" height="34.38" fill="#fdfdfd"/><path d="M 309.38 309.38 A 34.38 34.38 0 0 1  343.76 275 L 309.38 309.38 A 34.38 34.38 0 0 0 343.76 275" fill="#fcfcfc"/><rect x="275" y="309.38" width="34.38" height="34.38" fill="#fbfbfb"/><g transform="translate(275,309.38) scale(1.719) rotate(0)"><path fill-rule="evenodd" clip-rule="evenodd" d="M10 20C15.5228 20 20 15.5228 20 10C20 4.47715 15.5228 0 10 0C4.47715 0 0 4.47715 0 10C0 15.5228 4.47715 20 10 20ZM10 17C13.866 17 17 13.866 17 10C17 6.13401 13.866 3 10 3C6.13401 3 3 6.13401 3 10C3 13.866 6.13401 17 10 17Z" fill="#fefefe"/></g><rect x="309.38" y="309.38" width="34.38" height="34.38" fill="#fbfbfb"/><circle cx="326.57" cy="326.57" r="17.19" fill="#ffffff"/><rect x="343.75" y="275" width="68.75" height="68.75" fill="#ffffff"/><rect x="343.75" y="275" width="34.38" height="34.38" fill="#fbfbfb"/><path d="M 343.75 309.38 A 34.38 34.38 0 0 1  378.13 275 L 343.75 309.38 A 34.38 34.38 0 0 0 378.13 275" fill="#fbfbfb"/><rect x="343.75" y="309.38" width="34.38" height="34.38" fill="#fdfdfd"/><path d="M 343.75 309.38 A 34.38 34.38 0 0 1  378.13 343.76 L 343.75 309.38 A 34.38 34.38 0 0 0 378.13 343.76" fill="#fdfdfd"/><rect x="378.13" y="309.38" width="34.38" height="34.38" fill="#fcfcfc"/><circle cx="395.32" cy="326.57" r="17.19" fill="#fefefe"/><rect x="412.5" y="275" width="68.75" height="68.75" fill="#ffffff"/><rect x="446.88" y="275" width="34.38" height="34.38" fill="#fbfbfb"/><g transform="translate(446.88,275) scale(1.719) rotate(0)"><path fill-rule="evenodd" clip-rule="evenodd" d="M10 20C15.5228 20 20 15.5228 20 10C20 4.47715 15.5228 0 10 0C4.47715 0 0 4.47715 0 10C0 15.5228 4.47715 20 10 20ZM10 17C13.866 17 17 13.866 17 10C17 6.13401 13.866 3 10 3C6.13401 3 3 6.13401 3 10C3 13.866 6.13401 17 10 17Z" fill="#fefefe"/></g><rect x="0" y="343.75" width="68.75" height="68.75" fill="#ffffff"/><rect x="34.38" y="378.13" width="34.38" height="34.38" fill="#fbfbfb"/><path d="M 34.38 412.51 A 34.38 34.38 0 0 1  68.76 378.13 L 68.76 412.51" fill="#fbfbfb"/><rect x="137.5" y="343.75" width="68.75" height="68.75" fill="#ffffff"/><rect x="171.88" y="343.75" width="34.38" height="34.38" fill="#fcfcfc"/><g transform="translate(171.88,343.75) scale(1.719) rotate(0)"><path fill-rule="evenodd" clip-rule="evenodd" d="M10 20C15.5228 20 20 15.5228 20 10C20 4.47715 15.5228 0 10 0C4.47715 0 0 4.47715 0 10C0 15.5228 4.47715 20 10 20ZM10 17C13.866 17 17 13.866 17 10C17 6.13401 13.866 3 10 3C6.13401 3 3 6.13401 3 10C3 13.866 6.13401 17 10 17Z" fill="#ffffff"/></g><rect x="137.5" y="378.13" width="34.38" height="34.38" fill="#fafafa"/><path d="M 137.5 378.13 A 34.38 34.38 0 0 1 171.88 412.51 L 137.5 412.51" fill="#fdfdfd"/><rect x="171.88" y="378.13" width="34.38" height="34.38" fill="#fbfbfb"/><path d="M 171.88 412.51 A 34.38 34.38 0 0 1  206.26 378.13 L 171.88 412.51 A 34.38 34.38 0 0 0 206.26 378.13" fill="#fbfbfb"/><rect x="275" y="343.75" width="68.75" height="68.75" fill="#ffffff"/><rect x="275" y="343.75" width="34.38" height="34.38" fill="#fdfdfd"/><path d="M 275 343.75 A 34.38 34.38 0 0 0 309.38 378.13 L 309.38 343.75" fill="#fdfdfd"/><rect x="309.38" y="343.75" width="34.38" height="34.38" fill="#fcfcfc"/><path d="M 309.38 343.75 A 34.38 34.38 0 0 1  343.76 378.13 L 309.38 343.75 A 34.38 34.38 0 0 0 343.76 378.13" fill="#fdfdfd"/><rect x="275" y="378.13" width="34.38" height="34.38" fill="#fefefe"/><path d="M 275 412.51 A 34.38 34.38 0 0 1  309.38 378.13 L 275 412.51 A 34.38 34.38 0 0 0 309.38 378.13" fill="#fefefe"/><rect x="343.75" y="343.75" width="68.75" height="68.75" fill="#ffffff"/><rect x="343.75" y="343.75" width="34.38" height="34.38" fill="#fbfbfb"/><circle cx="360.94" cy="360.94" r="17.19" fill="#fcfcfc"/><rect x="378.13" y="343.75" width="34.38" height="34.38" fill="#fbfbfb"/><path d="M 378.13 378.13 A 34.38 34.38 0 0 1  412.51 343.75 L 378.13 378.13 A 34.38 34.38 0 0 0 412.51 343.75" fill="#fafafa"/><rect x="343.75" y="378.13" width="34.38" height="34.38" fill="#fbfbfb"/><circle cx="360.94" cy="395.32" r="17.19" fill="#fefefe"/><rect x="412.5" y="343.75" width="68.75" height="68.75" fill="#ffffff"/><rect x="412.5" y="343.75" width="34.38" height="34.38" fill="#fdfdfd"/><circle cx="429.69" cy="360.94" r="17.19" fill="#fcfcfc"/><rect x="412.5" y="378.13" width="34.38" height="34.38" fill="#fafafa"/><g transform="translate(412.5,378.13) scale(1.719) rotate(0)"><path fill-rule="evenodd" clip-rule="evenodd" d="M10 20C15.5228 20 20 15.5228 20 10C20 4.47715 15.5228 0 10 0C4.47715 0 0 4.47715 0 10C0 15.5228 4.47715 20 10 20ZM10 17C13.866 17 17 13.866 17 10C17 6.13401 13.866 3 10 3C6.13401 3 3 6.13401 3 10C3 13.866 6.13401 17 10 17Z" fill="#fcfcfc"/></g><rect x="618.75" y="343.75" width="68.75" height="68.75" fill="#ffffff"/><rect x="618.75" y="343.75" width="34.38" height="34.38" fill="#fcfcfc"/><path d="M 618.75 343.75 A 34.38 34.38 0 0 1  653.13 378.13 L 618.75 343.75 A 34.38 34.38 0 0 0 653.13 378.13" fill="#fefefe"/><rect x="653.13" y="378.13" width="34.38" height="34.38" fill="#fbfbfb"/><path d="M 653.13 412.51 A 34.38 34.38 0 0 1  687.51 378.13 L 653.13 412.51 A 34.38 34.38 0 0 0 687.51 378.13" fill="#fdfdfd"/><rect x="0" y="412.5" width="68.75" height="68.75" fill="#ffffff"/><rect x="0" y="446.88" width="34.38" height="34.38" fill="#fdfdfd"/><path d="M 0 446.88 A 34.38 34.38 0 0 1 34.38 481.26 L 0 481.26" fill="#fefefe"/><rect x="68.75" y="412.5" width="68.75" height="68.75" fill="#ffffff"/><rect x="103.13" y="446.88" width="34.38" height="34.38" fill="#fdfdfd"/><path d="M 103.13 481.26 A 34.38 34.38 0 0 1  137.51 446.88 L 103.13 481.26 A 34.38 34.38 0 0 0 137.51 446.88" fill="#fcfcfc"/><rect x="137.5" y="412.5" width="68.75" height="68.75" fill="#ffffff"/><rect x="137.5" y="446.88" width="34.38" height="34.38" fill="#fefefe"/><path d="M 137.5 446.88 A 34.38 34.38 0 0 1  171.88 481.26 L 137.5 446.88 A 34.38 34.38 0 0 0 171.88 481.26" fill="#fbfbfb"/><rect x="171.88" y="446.88" width="34.38" height="34.38" fill="#fcfcfc"/><path d="M 171.88 481.26 A 34.38 34.38 0 0 1  206.26 446.88 L 171.88 481.26 A 34.38 34.38 0 0 0 206.26 446.88" fill="#fdfdfd"/><rect x="206.25" y="412.5" width="68.75" height="68.75" fill="#ffffff"/><rect x="206.25" y="412.5" width="34.38" height="34.38" fill="#fefefe"/><circle cx="223.44" cy="429.69" r="17.19" fill="#fdfdfd"/><rect x="240.63" y="446.88" width="34.38" height="34.38" fill="#fefefe"/><g transform="translate(240.63,446.88) scale(1.719) rotate(0)"><path fill-rule="evenodd" clip-rule="evenodd" d="M10 20C15.5228 20 20 15.5228 20 10C20 4.47715 15.5228 0 10 0C4.47715 0 0 4.47715 0 10C0 15.5228 4.47715 20 10 20ZM10 17C13.866 17 17 13.866 17 10C17 6.13401 13.866 3 10 3C6.13401 3 3 6.13401 3 10C3 13.866 6.13401 17 10 17Z" fill="#fdfdfd"/></g><rect x="343.75" y="412.5" width="68.75" height="68.75" fill="#ffffff"/><rect x="343.75" y="412.5" width="34.38" height="34.38" fill="#fdfdfd"/><path d="M 343.75 446.88 A 34.38 34.38 0 0 0 378.13 412.5 L 343.75 412.5" fill="#fbfbfb"/><rect x="343.75" y="446.88" width="34.38" height="34.38" fill="#fcfcfc"/><circle cx="360.94" cy="464.07" r="17.19" fill="#fdfdfd"/><rect x="378.13" y="446.88" width="34.38" height="34.38" fill="#fdfdfd"/><g transform="translate(378.13,446.88) scale(1.719) rotate(0)"><path fill-rule="evenodd" clip-rule="evenodd" d="M10 20C15.5228 20 20 15.5228 20 10C20 4.47715 15.5228 0 10 0C4.47715 0 0 4.47715 0 10C0 15.5228 4.47715 20 10 20ZM10 17C13.866 17 17 13.866 17 10C17 6.13401 13.866 3 10 3C6.13401 3 3 6.13401 3 10C3 13.866 6.13401 17 10 17Z" fill="#fefefe"/></g><rect x="412.5" y="412.5" width="68.75" height="68.75" fill="#ffffff"/><rect x="446.88" y="412.5" width="34.38" height="34.38" fill="#fcfcfc"/><g transform="translate(446.88,412.5) scale(1.719) rotate(0)"><path fill-rule="evenodd" clip-rule="evenodd" d="M10 20C15.5228 20 20 15.5228 20 10C20 4.47715 15.5228 0 10 0C4.47715 0 0 4.47715 0 10C0 15.5228 4.47715 20 10 20ZM10 17C13.866 17 17 13.866 17 10C17 6.13401 13.866 3 10 3C6.13401 3 3 6.13401 3 10C3 13.866 6.13401 17 10 17Z" fill="#fefefe"/></g><rect x="412.5" y="446.88" width="34.38" height="34.38" fill="#ffffff"/><circle cx="429.69" cy="464.07" r="17.19" fill="#fdfdfd"/><rect x="481.25" y="412.5" width="68.75" height="68.75" fill="#ffffff"/><rect x="481.25" y="412.5" width="34.38" height="34.38" fill="#fcfcfc"/><g transform="translate(481.25,412.5) scale(1.719) rotate(0)"><path fill-rule="evenodd" clip-rule="evenodd" d="M10 20C15.5228 20 20 15.5228 20 10C20 4.47715 15.5228 0 10 0C4.47715 0 0 4.47715 0 10C0 15.5228 4.47715 20 10 20ZM10 17C13.866 17 17 13.866 17 10C17 6.13401 13.866 3 10 3C6.13401 3 3 6.13401 3 10C3 13.866 6.13401 17 10 17Z" fill="#fcfcfc"/></g><rect x="481.25" y="446.88" width="34.38" height="34.38" fill="#fafafa"/><g transform="translate(481.25,446.88) scale(1.719) rotate(0)"><path fill-rule="evenodd" clip-rule="evenodd" d="M10 20C15.5228 20 20 15.5228 20 10C20 4.47715 15.5228 0 10 0C4.47715 0 0 4.47715 0 10C0 15.5228 4.47715 20 10 20ZM10 17C13.866 17 17 13.866 17 10C17 6.13401 13.866 3 10 3C6.13401 3 3 6.13401 3 10C3 13.866 6.13401 17 10 17Z" fill="#fcfcfc"/></g><rect x="515.63" y="446.88" width="34.38" height="34.38" fill="#fbfbfb"/><g transform="translate(515.63,446.88) scale(1.719) rotate(0)"><path fill-rule="evenodd" clip-rule="evenodd" d="M10 20C15.5228 20 20 15.5228 20 10C20 4.47715 15.5228 0 10 0C4.47715 0 0 4.47715 0 10C0 15.5228 4.47715 20 10 20ZM10 17C13.866 17 17 13.866 17 10C17 6.13401 13.866 3 10 3C6.13401 3 3 6.13401 3 10C3 13.866 6.13401 17 10 17Z" fill="#fcfcfc"/></g><rect x="68.75" y="481.25" width="68.75" height="68.75" fill="#ffffff"/><rect x="68.75" y="515.63" width="34.38" height="34.38" fill="#fafafa"/><path d="M 68.75 515.63 A 34.38 34.38 0 0 0 103.13 550.01 L 103.13 515.63" fill="#fdfdfd"/><rect x="103.13" y="515.63" width="34.38" height="34.38" fill="#fdfdfd"/><path d="M 103.13 515.63 A 34.38 34.38 0 0 0 137.51 550.01 L 137.51 515.63" fill="#fefefe"/><rect x="206.25" y="481.25" width="68.75" height="68.75" fill="#ffffff"/><rect x="206.25" y="481.25" width="34.38" height="34.38" fill="#fdfdfd"/><circle cx="223.44" cy="498.44" r="17.19" fill="#fdfdfd"/><rect x="240.63" y="481.25" width="34.38" height="34.38" fill="#fcfcfc"/><path d="M 240.63 481.25 A 34.38 34.38 0 0 1  275.01 515.63 L 240.63 481.25 A 34.38 34.38 0 0 0 275.01 515.63" fill="#ffffff"/><rect x="240.63" y="515.63" width="34.38" height="34.38" fill="#fbfbfb"/><circle cx="257.82" cy="532.82" r="17.19" fill="#fefefe"/><rect x="275" y="481.25" width="68.75" height="68.75" fill="#ffffff"/><rect x="309.38" y="481.25" width="34.38" height="34.38" fill="#fefefe"/><circle cx="326.57" cy="498.44" r="17.19" fill="#fdfdfd"/><rect x="275" y="515.63" width="34.38" height="34.38" fill="#ffffff"/><circle cx="292.19" cy="532.82" r="17.19" fill="#fcfcfc"/><rect x="309.38" y="515.63" width="34.38" height="34.38" fill="#fbfbfb"/><g transform="translate(309.38,515.63) scale(1.719) rotate(0)"><path fill-rule="evenodd" clip-rule="evenodd" d="M10 20C15.5228 20 20 15.5228 20 10C20 4.47715 15.5228 0 10 0C4.47715 0 0 4.47715 0 10C0 15.5228 4.47715 20 10 20ZM10 17C13.866 17 17 13.866 17 10C17 6.13401 13.866 3 10 3C6.13401 3 3 6.13401 3 10C3 13.866 6.13401 17 10 17Z" fill="#fefefe"/></g><rect x="412.5" y="481.25" width="68.75" height="68.75" fill="#ffffff"/><rect x="446.88" y="481.25" width="34.38" height="34.38" fill="#fbfbfb"/><path d="M 446.88 515.63 A 34.38 34.38 0 0 1  481.26 481.25 L 446.88 515.63 A 34.38 34.38 0 0 0 481.26 481.25" fill="#fdfdfd"/><rect x="412.5" y="515.63" width="34.38" height="34.38" fill="#fcfcfc"/><path d="M 412.5 550.01 A 34.38 34.38 0 0 1  446.88 515.63 L 412.5 550.01 A 34.38 34.38 0 0 0 446.88 515.63" fill="#fefefe"/><rect x="446.88" y="515.63" width="34.38" height="34.38" fill="#fdfdfd"/><g transform="translate(446.88,515.63) scale(1.719) rotate(0)"><path fill-rule="evenodd" clip-rule="evenodd" d="M10 20C15.5228 20 20 15.5228 20 10C20 4.47715 15.5228 0 10 0C4.47715 0 0 4.47715 0 10C0 15.5228 4.47715 20 10 20ZM10 17C13.866 17 17 13.866 17 10C17 6.13401 13.866 3 10 3C6.13401 3 3 6.13401 3 10C3 13.866 6.13401 17 10 17Z" fill="#ffffff"/></g><rect x="481.25" y="481.25" width="68.75" height="68.75" fill="#ffffff"/><rect x="515.63" y="481.25" width="34.38" height="34.38" fill="#fafafa"/><path d="M 515.63 515.63 A 34.38 34.38 0 0 0 550.01 481.25 L 515.63 481.25" fill="#fdfdfd"/><rect x="618.75" y="481.25" width="68.75" height="68.75" fill="#ffffff"/><rect x="653.13" y="515.63" width="34.38" height="34.38" fill="#fefefe"/><path d="M 653.13 515.63 A 34.38 34.38 0 0 1  687.51 550.01 L 653.13 515.63 A 34.38 34.38 0 0 0 687.51 550.01" fill="#fefefe"/><rect x="687.5" y="481.25" width="68.75" height="68.75" fill="#ffffff"/><rect x="721.88" y="481.25" width="34.38" height="34.38" fill="#fefefe"/><path d="M 721.88 481.25 A 34.38 34.38 0 0 1 756.26 515.63 L 721.88 515.63" fill="#fefefe"/><rect x="687.5" y="515.63" width="34.38" height="34.38" fill="#fdfdfd"/><path d="M 687.5 550.01 A 34.38 34.38 0 0 1  721.88 515.63 L 721.88 550.01" fill="#fbfbfb"/></g></svg>